<svg width="64" height="64" viewBox="0 0 64 64" fill="none" xmlns="http://www.w3.org/2000/svg">
<g clip-path="url(#clip0_2_1356)">
<path d="M32 64C49.6731 64 64 49.6731 64 32C64 14.3269 49.6731 0 32 0C14.3269 0 0 14.3269 0 32C0 49.6731 14.3269 64 32 64Z" fill="#32735F"/>
<path opacity="0.5" d="M31.9997 47.1304C40.3567 47.1304 47.1313 40.3557 47.1313 31.9988C47.1313 23.6418 40.3567 16.8672 31.9997 16.8672C23.6428 16.8672 16.8681 23.6418 16.8681 31.9988C16.8681 40.3557 23.6428 47.1304 31.9997 47.1304Z" fill="#E1FFA0"/>
<path opacity="0.2" d="M32 55C44.7025 55 55 44.7025 55 32C55 19.2975 44.7025 9 32 9C19.2975 9 9 19.2975 9 32C9 44.7025 19.2975 55 32 55Z" fill="#E1FFA0"/>
<path d="M31.9997 38.6595C35.6767 38.6595 38.6576 35.6787 38.6576 32.0016C38.6576 28.3246 35.6767 25.3438 31.9997 25.3438C28.3226 25.3438 25.3418 28.3246 25.3418 32.0016C25.3418 35.6787 28.3226 38.6595 31.9997 38.6595Z" fill="white"/>
</g>
<defs>
<clipPath id="clip0_2_1356">
<rect width="64" height="64" fill="white"/>
</clipPath>
</defs>
</svg>
